<svg width="198" height="22" viewBox="0 0 198 22" fill="none" xmlns="http://www.w3.org/2000/svg">
<path d="M43.3379 10.5851C43.3379 8.54649 43.7768 6.7333 44.6545 5.14554C45.5322 3.53817 46.7513 2.29344 48.3117 1.41135C49.8917 0.509653 51.6764 0.0588054 53.6659 0.0588054C56.1041 0.0588054 58.1912 0.705673 59.9271 1.99941C61.6631 3.29314 62.8237 5.05733 63.4088 7.29196H57.9083C57.4987 6.42947 56.9136 5.7728 56.1529 5.32196C55.4117 4.87111 54.5632 4.64569 53.6074 4.64569C52.0665 4.64569 50.8182 5.18474 49.8624 6.26286C48.9066 7.34097 48.4288 8.78172 48.4288 10.5851C48.4288 12.3885 48.9066 13.8292 49.8624 14.9074C50.8182 15.9855 52.0665 16.5245 53.6074 16.5245C54.5632 16.5245 55.4117 16.2991 56.1529 15.8483C56.9136 15.3974 57.4987 14.7407 57.9083 13.8783H63.4088C62.8237 16.1129 61.6631 17.8771 59.9271 19.1708C58.1912 20.4449 56.1041 21.082 53.6659 21.082C51.6764 21.082 49.8917 20.641 48.3117 19.7589C46.7513 18.8572 45.5322 17.6124 44.6545 16.0247C43.7768 14.4369 43.3379 12.6237 43.3379 10.5851Z" fill="#693FAD"/>
<path d="M76.1863 21.1408C74.2553 21.1408 72.4803 20.69 70.8614 19.7883C69.2619 18.8866 67.9843 17.632 67.0286 16.0247C66.0923 14.3977 65.6242 12.5747 65.6242 10.5557C65.6242 8.53669 66.0923 6.7235 67.0286 5.11613C67.9843 3.50877 69.2619 2.25424 70.8614 1.35254C72.4803 0.450847 74.2553 0 76.1863 0C78.1173 0 79.8826 0.450847 81.482 1.35254C83.1009 2.25424 84.3688 3.50877 85.2855 5.11613C86.2218 6.7235 86.6899 8.53669 86.6899 10.5557C86.6899 12.5747 86.2218 14.3977 85.2855 16.0247C84.3493 17.632 83.0814 18.8866 81.482 19.7883C79.8826 20.69 78.1173 21.1408 76.1863 21.1408ZM76.1863 16.5539C77.8248 16.5539 79.1316 16.0051 80.1069 14.9074C81.1016 13.8096 81.599 12.3591 81.599 10.5557C81.599 8.73271 81.1016 7.28216 80.1069 6.20405C79.1316 5.10633 77.8248 4.55748 76.1863 4.55748C74.5284 4.55748 73.202 5.09653 72.2072 6.17465C71.232 7.25276 70.7443 8.71311 70.7443 10.5557C70.7443 12.3787 71.232 13.839 72.2072 14.9368C73.202 16.0149 74.5284 16.5539 76.1863 16.5539Z" fill="#693FAD"/>
<path d="M97.1681 0.29403C99.3332 0.29403 101.225 0.725275 102.844 1.58776C104.463 2.45026 105.711 3.66558 106.589 5.23375C107.486 6.78231 107.935 8.5759 107.935 10.6145C107.935 12.6335 107.486 14.4271 106.589 15.9953C105.711 17.5634 104.453 18.7788 102.815 19.6413C101.196 20.5037 99.3137 20.935 97.1681 20.935H89.4733V0.29403H97.1681ZM96.8463 16.5833C98.7383 16.5833 100.211 16.0639 101.264 15.025C102.318 13.9861 102.844 12.5159 102.844 10.6145C102.844 8.71311 102.318 7.23316 101.264 6.17465C100.211 5.11613 98.7383 4.58688 96.8463 4.58688H94.4764V16.5833H96.8463Z" fill="#693FAD"/>
<path d="M115.734 4.32225V8.49749H122.434V12.3787H115.734V16.9068H123.312V20.935H110.731V0.29403H123.312V4.32225H115.734Z" fill="#693FAD"/>
<path d="M138.995 10.3499C140.184 10.6047 141.14 11.2026 141.862 12.1435C142.584 13.0648 142.944 14.1233 142.944 15.319C142.944 17.044 142.34 18.4161 141.13 19.4354C139.941 20.4351 138.273 20.935 136.127 20.935H126.56V0.29403H135.805C137.893 0.29403 139.521 0.77428 140.692 1.73478C141.881 2.69528 142.476 3.99882 142.476 5.64539C142.476 6.86072 142.154 7.87022 141.511 8.67391C140.887 9.47759 140.048 10.0362 138.995 10.3499ZM131.563 8.6445H134.84C135.659 8.6445 136.283 8.46809 136.713 8.11525C137.161 7.74281 137.385 7.20375 137.385 6.49808C137.385 5.79241 137.161 5.25335 136.713 4.88091C136.283 4.50847 135.659 4.32225 134.84 4.32225H131.563V8.6445ZM135.25 16.8774C136.088 16.8774 136.732 16.6911 137.181 16.3187C137.649 15.9267 137.883 15.368 137.883 14.6427C137.883 13.9175 137.639 13.349 137.151 12.9374C136.683 12.5257 136.03 12.3199 135.191 12.3199H131.563V16.8774H135.25Z" fill="#693FAD"/>
<path d="M158.632 17.289H150.966L149.738 20.935H144.5L151.932 0.29403H157.725L165.156 20.935H159.861L158.632 17.289ZM157.345 13.4078L154.799 5.85121L152.283 13.4078H157.345Z" fill="#693FAD"/>
<path d="M174.85 21.1408C173.348 21.1408 172.002 20.8958 170.812 20.4057C169.622 19.9157 168.667 19.1904 167.945 18.2299C167.243 17.2694 166.872 16.1129 166.833 14.7603H172.158C172.236 15.5248 172.499 16.1129 172.948 16.5245C173.397 16.9166 173.982 17.1126 174.703 17.1126C175.445 17.1126 176.03 16.946 176.459 16.6127C176.888 16.2599 177.103 15.7796 177.103 15.172C177.103 14.6623 176.927 14.2409 176.576 13.9077C176.244 13.5744 175.825 13.3 175.318 13.0844C174.83 12.8687 174.128 12.6237 173.211 12.3493C171.885 11.9376 170.802 11.526 169.964 11.1144C169.125 10.7027 168.403 10.0951 167.799 9.29137C167.194 8.48769 166.892 7.43898 166.892 6.14524C166.892 4.22424 167.584 2.72468 168.969 1.64657C170.354 0.548857 172.158 0 174.382 0C176.644 0 178.468 0.548857 179.853 1.64657C181.238 2.72468 181.979 4.23404 182.076 6.17465H176.664C176.625 5.50818 176.381 4.98872 175.932 4.61628C175.484 4.22424 174.908 4.02822 174.206 4.02822C173.601 4.02822 173.114 4.19484 172.743 4.52807C172.373 4.84171 172.187 5.30235 172.187 5.91002C172.187 6.57649 172.499 7.09594 173.124 7.46838C173.748 7.84082 174.723 8.24266 176.049 8.67391C177.376 9.12475 178.448 9.556 179.268 9.96764C180.106 10.3793 180.828 10.9771 181.433 11.7612C182.037 12.5453 182.34 13.5548 182.34 14.7897C182.34 15.9659 182.037 17.0342 181.433 17.9947C180.848 18.9552 179.989 19.7197 178.858 20.2881C177.727 20.8566 176.391 21.1408 174.85 21.1408Z" fill="#693FAD"/>
<path d="M190.422 4.32225V8.49749H197.122V12.3787H190.422V16.9068H198V20.935H185.419V0.29403H198V4.32225H190.422Z" fill="#693FAD"/>
<path fill-rule="evenodd" clip-rule="evenodd" d="M28.8976 12.7275C29.2196 13.0139 29.4827 13.3615 29.6719 13.7506C29.861 14.1398 29.9724 14.5627 29.9999 14.9954C30.0273 15.428 29.9701 15.8619 29.8317 16.2722C29.6932 16.6826 29.4761 17.0613 29.1929 17.3868C28.9096 17.7124 28.5657 17.9783 28.1807 18.1695C27.7958 18.3607 27.3773 18.4733 26.9493 18.5011C26.5213 18.5288 26.092 18.471 25.6861 18.331C25.2802 18.1911 24.9055 17.9717 24.5834 17.6853L16.3219 10.3398L8.06045 17.6853C7.73881 17.9732 7.36384 18.1936 6.95727 18.3338C6.55071 18.4741 6.12064 18.5313 5.69203 18.5022C5.04675 18.4614 4.42802 18.2277 3.91431 17.8309C3.40061 17.4341 3.01507 16.8919 2.80663 16.2733C2.59819 15.6547 2.57622 14.9874 2.74352 14.3561C2.91082 13.7248 3.25984 13.158 3.74631 12.7275L14.1649 3.46545C14.7614 2.93612 15.5281 2.64422 16.3219 2.64422C17.1157 2.64422 17.8824 2.93612 18.479 3.46546L28.8976 12.7275ZM5.52059 21.1408C4.35347 21.0658 3.23619 20.6426 2.30985 19.9271C1.38213 19.2104 0.688182 18.2333 0.313449 17.1211C-0.0612342 16.0091 -0.10064 14.8102 0.199985 13.6758C0.5004 12.5423 1.12749 11.5219 2.00441 10.7452C2.00512 10.7445 2.00583 10.7439 2.00653 10.7433L12.4224 1.48359C13.4986 0.528725 14.8844 -7.76062e-07 16.3219 -7.13227e-07C17.7594 -6.50392e-07 19.1453 0.528725 20.2215 1.4836L30.6419 10.7473C31.223 11.264 31.6969 11.8905 32.0371 12.5904C32.3773 13.2903 32.5774 14.0504 32.6267 14.8274C32.6759 15.6043 32.5733 16.3837 32.3244 17.1212C32.0756 17.8587 31.6851 18.5404 31.1746 19.1271C30.664 19.7139 30.0432 20.1942 29.3472 20.5399C28.6511 20.8856 27.8938 21.0896 27.1186 21.1398L5.52059 21.1408Z" fill="#693FAD"/>
</svg>
