<svg width="160" height="17" viewBox="0 0 160 17" fill="none" xmlns="http://www.w3.org/2000/svg">
<path d="M33 8.01113C33 6.46824 33.3604 5.09597 34.0811 3.8943C34.8019 2.67779 35.8029 1.73574 37.0843 1.06815C38.3816 0.38572 39.8471 0.0445057 41.4808 0.0445057C43.4829 0.0445057 45.1967 0.534074 46.6222 1.51321C48.0477 2.49235 49.0007 3.82754 49.4812 5.51878H44.9645C44.6281 4.86602 44.1476 4.36903 43.523 4.02782C42.9143 3.6866 42.2176 3.51599 41.4328 3.51599C40.1675 3.51599 39.1424 3.92397 38.3576 4.73992C37.5728 5.55586 37.1804 6.64627 37.1804 8.01113C37.1804 9.37598 37.5728 10.4664 38.3576 11.2823C39.1424 12.0983 40.1675 12.5063 41.4328 12.5063C42.2176 12.5063 42.9143 12.3357 43.523 11.9944C44.1476 11.6532 44.6281 11.1562 44.9645 10.5035H49.4812C49.0007 12.1947 48.0477 13.5299 46.6222 14.509C45.1967 15.4733 43.4829 15.9555 41.4808 15.9555C39.8471 15.9555 38.3816 15.6217 37.0843 14.9541C35.8029 14.2717 34.8019 13.3296 34.0811 12.128C33.3604 10.9263 33 9.55401 33 8.01113Z" fill="#ffffff"/>
<path d="M59.9734 16C58.3877 16 56.9302 15.6588 55.6008 14.9764C54.2874 14.2939 53.2384 13.3445 52.4535 12.128C51.6847 10.8966 51.3003 9.51692 51.3003 7.98887C51.3003 6.46082 51.6847 5.08855 52.4535 3.87204C53.2384 2.65554 54.2874 1.70607 55.6008 1.02364C56.9302 0.341215 58.3877 0 59.9734 0C61.559 0 63.0085 0.341215 64.3219 1.02364C65.6513 1.70607 66.6924 2.65554 67.4452 3.87204C68.214 5.08855 68.5984 6.46082 68.5984 7.98887C68.5984 9.51692 68.214 10.8966 67.4452 12.128C66.6764 13.3445 65.6353 14.2939 64.3219 14.9764C63.0085 15.6588 61.559 16 59.9734 16ZM59.9734 12.5285C61.3188 12.5285 62.3919 12.1131 63.1927 11.2823C64.0096 10.4516 64.418 9.35373 64.418 7.98887C64.418 6.60918 64.0096 5.51136 63.1927 4.69541C62.3919 3.86463 61.3188 3.44923 59.9734 3.44923C58.612 3.44923 57.5228 3.85721 56.706 4.67316C55.9051 5.4891 55.5047 6.59434 55.5047 7.98887C55.5047 9.36857 55.9051 10.4738 56.706 11.3046C57.5228 12.1205 58.612 12.5285 59.9734 12.5285Z" fill="#ffffff"/>
<path d="M77.2025 0.222531C78.9804 0.222531 80.534 0.54891 81.8634 1.20167C83.1928 1.85443 84.2178 2.77422 84.9386 3.96106C85.6754 5.13305 86.0437 6.4905 86.0437 8.03338C86.0437 9.56143 85.6754 10.9189 84.9386 12.1057C84.2178 13.2925 83.1848 14.2123 81.8394 14.8651C80.51 15.5178 78.9644 15.8442 77.2025 15.8442H70.8839V0.222531H77.2025ZM76.9383 12.5508C78.4919 12.5508 79.7011 12.1576 80.566 11.3713C81.4309 10.5851 81.8634 9.47241 81.8634 8.03338C81.8634 6.59434 81.4309 5.47427 80.566 4.67316C79.7011 3.87204 78.4919 3.47149 76.9383 3.47149H74.9922V12.5508H76.9383Z" fill="#ffffff"/>
<path d="M92.4479 3.27121V6.43115H97.9497V9.36857H92.4479V12.7955H98.6704V15.8442H88.3396V0.222531H98.6704V3.27121H92.4479Z" fill="#ffffff"/>
<path d="M111.548 7.8331C112.525 8.02596 113.31 8.47844 113.903 9.19054C114.495 9.88781 114.792 10.6889 114.792 11.5939C114.792 12.8994 114.295 13.9379 113.302 14.7093C112.325 15.4659 110.956 15.8442 109.194 15.8442H101.338V0.222531H108.929C110.643 0.222531 111.981 0.585999 112.942 1.31293C113.919 2.03987 114.407 3.02642 114.407 4.2726C114.407 5.1924 114.143 5.95642 113.614 6.56467C113.102 7.17293 112.413 7.59573 111.548 7.8331ZM105.446 6.54242H108.137C108.809 6.54242 109.322 6.4089 109.674 6.14186C110.043 5.85999 110.227 5.45202 110.227 4.91794C110.227 4.38387 110.043 3.97589 109.674 3.69402C109.322 3.41215 108.809 3.27121 108.137 3.27121H105.446V6.54242ZM108.473 12.7733C109.162 12.7733 109.69 12.6324 110.059 12.3505C110.443 12.0538 110.635 11.631 110.635 11.0821C110.635 10.5331 110.435 10.1029 110.035 9.79138C109.65 9.47983 109.114 9.32406 108.425 9.32406H105.446V12.7733H108.473Z" fill="#ffffff"/>
<path d="M127.673 13.0848H121.379L120.37 15.8442H116.069L122.172 0.222531H126.929L133.031 15.8442H128.682L127.673 13.0848ZM126.616 10.1474L124.526 4.42837L122.46 10.1474H126.616Z" fill="#ffffff"/>
<path d="M140.991 16C139.757 16 138.652 15.8146 137.675 15.4437C136.698 15.0728 135.913 14.5239 135.321 13.7969C134.744 13.07 134.44 12.1947 134.408 11.1711H138.78C138.844 11.7497 139.061 12.1947 139.429 12.5063C139.797 12.803 140.278 12.9513 140.87 12.9513C141.479 12.9513 141.96 12.8252 142.312 12.573C142.664 12.306 142.84 11.9425 142.84 11.4826C142.84 11.0969 142.696 10.7779 142.408 10.5257C142.136 10.2735 141.791 10.0658 141.375 9.90264C140.975 9.73945 140.398 9.55401 139.645 9.34631C138.556 9.03477 137.667 8.72323 136.978 8.41168C136.29 8.10014 135.697 7.64024 135.201 7.03199C134.704 6.42374 134.456 5.63004 134.456 4.6509C134.456 3.19703 135.024 2.06212 136.162 1.24618C137.299 0.415392 138.78 0 140.606 0C142.464 0 143.962 0.415392 145.099 1.24618C146.236 2.06212 146.845 3.20445 146.925 4.67316H142.48C142.448 4.16875 142.248 3.77561 141.879 3.49374C141.511 3.19703 141.039 3.04868 140.462 3.04868C139.965 3.04868 139.565 3.17478 139.261 3.42698C138.956 3.66435 138.804 4.01298 138.804 4.47288C138.804 4.97728 139.061 5.37042 139.573 5.65229C140.086 5.93417 140.886 6.23829 141.976 6.56467C143.065 6.90589 143.946 7.23227 144.618 7.54381C145.307 7.85535 145.9 8.30783 146.396 8.90125C146.893 9.49467 147.141 10.2587 147.141 11.1933C147.141 12.0834 146.893 12.892 146.396 13.6189C145.916 14.3459 145.211 14.9244 144.282 15.3547C143.353 15.7849 142.256 16 140.991 16Z" fill="#ffffff"/>
<path d="M153.778 3.27121V6.43115H159.279V9.36857H153.778V12.7955H160V15.8442H149.669V0.222531H160V3.27121H153.778Z" fill="#ffffff"/>
<path fill-rule="evenodd" clip-rule="evenodd" d="M22.0376 9.72492C22.2832 9.94329 22.4838 10.2084 22.628 10.5052C22.7723 10.8019 22.8573 11.1245 22.8782 11.4544C22.8991 11.7844 22.8555 12.1153 22.7499 12.4282C22.6443 12.7411 22.4788 13.03 22.2628 13.2782C22.0467 13.5265 21.7844 13.7293 21.4909 13.8751C21.1973 14.0209 20.8782 14.1068 20.5518 14.128C20.2253 14.1491 19.898 14.1051 19.5884 13.9983C19.2788 13.8916 18.9931 13.7242 18.7475 13.5059L12.447 7.90394L6.14659 13.5059C5.9013 13.7254 5.61534 13.8935 5.30528 14.0004C4.99522 14.1074 4.66724 14.151 4.34036 14.1288C3.84826 14.0977 3.3764 13.9195 2.98463 13.6169C2.59286 13.3143 2.29885 12.9008 2.13988 12.429C1.98092 11.9572 1.96416 11.4483 2.09175 10.9669C2.21934 10.4855 2.48551 10.0532 2.85651 9.72492L10.802 2.66141C11.257 2.25772 11.8417 2.03511 12.447 2.03511C13.0524 2.03511 13.6371 2.25772 14.0921 2.66141L22.0376 9.72492ZM4.20962 16.1411C3.31954 16.0839 2.46748 15.7612 1.76103 15.2155C1.05352 14.669 0.524295 13.9237 0.238513 13.0756C-0.0472303 12.2275 -0.0772844 11.3132 0.151983 10.4481C0.381086 9.58362 0.859321 8.80546 1.52809 8.21312C1.52863 8.21264 1.52917 8.21216 1.5297 8.21169L9.47314 1.14999C10.2938 0.421775 11.3508 0.0185541 12.447 0.0185541C13.5433 0.0185542 14.6002 0.421775 15.4209 1.14999L23.3678 8.21477C23.811 8.60878 24.1724 9.0866 24.4318 9.62037C24.6913 10.1541 24.8439 10.7338 24.8815 11.3263C24.919 11.9189 24.8408 12.5132 24.651 13.0756C24.4612 13.6381 24.1634 14.158 23.774 14.6054C23.3847 15.0529 22.9112 15.4192 22.3804 15.6828C21.8496 15.9465 21.2721 16.1021 20.6809 16.1404L4.20962 16.1411Z" fill="#ffffff"/>
</svg>
