<svg width="100" height="100" viewBox="0 0 100 100" fill="none" xmlns="http://www.w3.org/2000/svg">
<path fill-rule="evenodd" clip-rule="evenodd" d="M10 0C4.47715 0 0 4.47716 0 10V90C0 95.5229 4.47716 100 10 100H90C95.5229 100 100 95.5228 100 90V10C100 4.47715 95.5228 0 90 0H10ZM66 63V65C69.9782 65 73.7936 63.4196 76.6066 60.6066C79.4196 57.7936 81 53.9782 81 50C81 46.0218 79.4196 42.2064 76.6066 39.3934C73.7936 36.5804 69.9782 35 66 35C57.4343 35 53.2143 42.3825 49.1462 49.4992L49.14 49.51C45.17 56.45 41.42 63 34 63C30.5522 63 27.2456 61.6304 24.8076 59.1924C22.3696 56.7544 21 53.4478 21 50C21 46.5522 22.3696 43.2456 24.8076 40.8076C27.2456 38.3696 30.5522 37 34 37C37.93 37 41.05 38.74 44.14 42.64L45.71 41.4C42.25 37 38.53 35 34 35C30.0218 35 26.2064 36.5804 23.3934 39.3934C20.5804 42.2064 19 46.0218 19 50C19 53.9782 20.5804 57.7936 23.3934 60.6066C26.2064 63.4196 30.0218 65 34 65C42.58 65 46.79 57.63 50.87 50.48L50.8737 50.4735C54.8423 43.5459 58.5923 37 66 37C69.4478 37 72.7544 38.3696 75.1924 40.8076C77.6304 43.2456 79 46.5522 79 50C79 53.4478 77.6304 56.7544 75.1924 59.1924C72.7544 61.6304 69.4478 63 66 63ZM65.9998 65.0002C61.4898 65.0002 57.7798 63.0002 54.3398 58.6602L55.8998 57.4102C58.9998 61.2502 62.0898 63.0002 65.9998 63.0002V65.0002Z" fill="#693FAD"/>
</svg>
