<svg width="35" height="35" viewBox="0 0 35 35" fill="none" xmlns="http://www.w3.org/2000/svg">
<path d="M24.5733 0H10.4267C4.67739 0 0 4.67739 0 10.4267V24.5733C0 30.3226 4.67739 35 10.4267 35H24.5733C30.3226 35 35 30.3226 35 24.5733V10.4267C34.9999 4.67739 30.3225 0 24.5733 0ZM31.479 24.5733C31.479 28.3872 28.3872 31.479 24.5733 31.479H10.4267C6.61281 31.479 3.521 28.3872 3.521 24.5733V10.4267C3.521 6.61275 6.61281 3.521 10.4267 3.521H24.5733C28.3872 3.521 31.479 6.61275 31.479 10.4267V24.5733Z" fill="url(#paint0_linear)"/>
<path d="M17.5005 8.44775C12.5091 8.44775 8.44824 12.5086 8.44824 17.4999C8.44824 22.4913 12.5091 26.5522 17.5005 26.5522C22.4919 26.5522 26.5527 22.4914 26.5527 17.4999C26.5527 12.5085 22.4919 8.44775 17.5005 8.44775ZM17.5005 23.0312C14.4456 23.0312 11.9692 20.5548 11.9692 17.5C11.9692 14.4452 14.4457 11.9688 17.5005 11.9688C20.5553 11.9688 23.0317 14.4452 23.0317 17.5C23.0317 20.5548 20.5553 23.0312 17.5005 23.0312Z" fill="url(#paint1_linear)"/>
<path d="M26.5695 10.6849C27.7675 10.6849 28.7386 9.71375 28.7386 8.51578C28.7386 7.31782 27.7675 6.34668 26.5695 6.34668C25.3715 6.34668 24.4004 7.31782 24.4004 8.51578C24.4004 9.71375 25.3715 10.6849 26.5695 10.6849Z" fill="url(#paint2_linear)"/>
<defs>
<linearGradient id="paint0_linear" x1="17.5" y1="34.8981" x2="17.5" y2="0.271851" gradientUnits="userSpaceOnUse">
<stop stop-color="#E09B3D"/>
<stop offset="0.3" stop-color="#C74C4D"/>
<stop offset="0.6" stop-color="#C21975"/>
<stop offset="1" stop-color="#7024C4"/>
</linearGradient>
<linearGradient id="paint1_linear" x1="17.5005" y1="34.8981" x2="17.5005" y2="0.271853" gradientUnits="userSpaceOnUse">
<stop stop-color="#E09B3D"/>
<stop offset="0.3" stop-color="#C74C4D"/>
<stop offset="0.6" stop-color="#C21975"/>
<stop offset="1" stop-color="#7024C4"/>
</linearGradient>
<linearGradient id="paint2_linear" x1="26.5695" y1="34.8982" x2="26.5695" y2="0.271919" gradientUnits="userSpaceOnUse">
<stop stop-color="#E09B3D"/>
<stop offset="0.3" stop-color="#C74C4D"/>
<stop offset="0.6" stop-color="#C21975"/>
<stop offset="1" stop-color="#7024C4"/>
</linearGradient>
</defs>
</svg>
