<svg width="22" height="15" viewBox="0 0 22 15" fill="none" xmlns="http://www.w3.org/2000/svg">
<path d="M20.4705 0.000666222C20.0853 0.0110935 19.7192 0.17083 19.4497 0.446135C19.3887 0.507125 18.5115 1.35638 17.3615 2.45074C16.2115 3.54511 14.7258 4.9565 13.2409 6.36715C11.756 7.77782 10.2719 9.1877 9.12033 10.2836C8.50752 10.8667 8.34852 11.0162 7.97884 11.3694L2.46613 6.60845C2.3181 6.4802 2.14623 6.3824 1.96037 6.32062C1.7745 6.25885 1.57828 6.2343 1.38293 6.24841C1.18757 6.26252 0.996917 6.31501 0.82186 6.40286C0.646804 6.49071 0.490781 6.61221 0.362715 6.7604C0.234648 6.90859 0.137049 7.08058 0.0754988 7.26652C0.0139487 7.45246 -0.0103453 7.64872 0.0040061 7.84406C0.0183575 8.03939 0.0710728 8.22998 0.159137 8.40493C0.247202 8.57988 0.368889 8.73575 0.517239 8.86363L7.05078 14.5063C7.33486 14.7521 7.70154 14.8811 8.07696 14.8673C8.45237 14.8535 8.80862 14.698 9.07392 14.432C9.13492 14.371 10.012 13.5217 11.1621 12.4274C12.3121 11.333 13.7978 9.93092 15.2826 8.52027C16.7675 7.10962 18.2517 5.69042 19.4032 4.59456C20.5548 3.4987 21.3111 2.78882 21.547 2.55283C21.7625 2.34457 21.9099 2.07602 21.9699 1.78243C22.0299 1.48885 21.9997 1.18398 21.8832 0.907881C21.7668 0.631784 21.5695 0.397369 21.3174 0.235454C21.0652 0.0735399 20.77 -0.00830693 20.4705 0.000666222Z" fill="#693FAD"/>
</svg>
