<svg width="100" height="100" viewBox="0 0 100 100" fill="none" xmlns="http://www.w3.org/2000/svg">
<path fill-rule="evenodd" clip-rule="evenodd" d="M0 10C0 4.47716 4.47715 0 10 0H90C95.5228 0 100 4.47715 100 10V90C100 95.5228 95.5229 100 90 100H10C4.47716 100 0 95.5229 0 90V10ZM62.9396 77.9169H25.9955C24.3313 77.9169 23 76.5856 23 74.9214V33.7337C23 32.0695 24.3313 30.7382 25.9955 30.7382H33.2358V28.7415C33.2358 28.2423 33.5686 27.9094 34.0679 27.9094H36.8114V27.2436C36.8114 24.9138 38.7252 23 41.055 23H47.046C49.3758 23 51.2895 24.9138 51.2895 27.2436V27.9094H54.0377C54.5369 27.9094 54.8698 28.2423 54.8698 28.7415V30.7382H62.9396C64.6038 30.7382 65.9351 32.0695 65.9351 33.7337V74.9214C65.9351 76.5856 64.6038 77.9169 62.9396 77.9169ZM38.4756 27.2436V27.9094H49.6254V27.2436C49.6254 25.829 48.4605 24.6641 47.046 24.6641H41.055C39.6405 24.6641 38.4756 25.829 38.4756 27.2436ZM54.8698 32.4024H62.9396C63.6885 32.4024 64.2709 32.9848 64.2709 33.7337V74.9214C64.2709 75.6703 63.6885 76.2527 62.9396 76.2527H25.9955C25.2466 76.2527 24.6642 75.6703 24.6642 74.9214V33.7337C24.6642 32.9848 25.2466 32.4024 25.9955 32.4024H33.2358V34.8157C33.2358 35.3149 33.5686 35.6477 34.0679 35.6477H54.0377C54.5369 35.6477 54.8698 35.3149 54.8698 34.8989V32.4024ZM53.2056 31.6234V33.9836H34.9V29.5736H53.2056V31.5172C53.2048 31.5347 53.2043 31.5524 53.2043 31.5703C53.2043 31.5882 53.2048 31.6059 53.2056 31.6234ZM73.2575 74.3394L70.5602 66.1017H75.9053L73.2575 74.3394ZM77.9993 65.2696C77.9667 65.4327 77.8957 65.5958 77.7913 65.7339L74.0063 77.4181C73.9231 77.6677 73.5903 77.9173 73.2575 77.9173C72.9246 77.9173 72.5918 77.6677 72.4254 77.3348L68.5978 65.5194C68.5252 65.3379 68.5318 65.1405 68.5969 64.9619V45.3831V41.8883C68.5969 40.0577 70.0946 38.4768 72.0084 38.4768H74.5878C76.4184 38.4768 77.9993 39.9745 77.9993 41.8883V65.2696ZM70.1778 46.2152V64.4375H70.261H76.252V46.2152H70.1778ZM76.252 44.551H70.1778V41.8883C70.1778 40.8898 71.0099 40.1409 71.9252 40.1409H74.5046C75.5031 40.1409 76.252 40.973 76.252 41.8883V44.551ZM35.3983 53.6205H35.2319C34.9823 53.6205 34.8158 53.454 34.6494 53.2044L32.4028 49.4601C32.1532 49.044 32.3196 48.5448 32.6525 48.2952C33.0685 48.0456 33.5677 48.212 33.8174 48.5448L35.5647 51.4571L41.6389 46.3814C41.9717 46.0486 42.5541 46.1318 42.8038 46.4646C43.1366 46.7974 43.0534 47.3799 42.7206 47.6295L35.8975 53.3708C35.8143 53.5372 35.5647 53.6205 35.3983 53.6205ZM49.876 44.0515H61.8579C62.3571 44.0515 62.69 43.7187 62.69 43.2194C62.69 42.7202 62.3571 42.3874 61.8579 42.3874H49.876C49.3767 42.3874 49.0439 42.7202 49.0439 43.2194C49.0439 43.7187 49.3767 44.0515 49.876 44.0515ZM61.8579 49.4601H49.876C49.3767 49.4601 49.0439 49.1273 49.0439 48.6281C49.0439 48.1288 49.3767 47.796 49.876 47.796H61.8579C62.3571 47.796 62.69 48.1288 62.69 48.6281C62.69 49.0441 62.3571 49.4601 61.8579 49.4601ZM49.876 54.7852H61.8579C62.3571 54.7852 62.69 54.4524 62.69 53.9531C62.69 53.4539 62.3571 53.1211 61.8579 53.1211H49.876C49.3767 53.1211 49.0439 53.4539 49.0439 53.9531C49.0439 54.4524 49.3767 54.7852 49.876 54.7852ZM61.8579 60.1936H49.876C49.3767 60.1936 49.0439 59.8608 49.0439 59.3615C49.0439 58.8623 49.3767 58.5295 49.876 58.5295H61.8579C62.3571 58.5295 62.69 58.8623 62.69 59.3615C62.69 59.8608 62.3571 60.1936 61.8579 60.1936ZM49.876 65.6022H61.8579C62.3571 65.6022 62.69 65.1862 62.69 64.7702C62.69 64.2709 62.3571 63.9381 61.8579 63.9381H49.876C49.3767 63.9381 49.0439 64.2709 49.0439 64.7702C49.0439 65.2694 49.3767 65.6022 49.876 65.6022ZM61.8579 70.9275H49.876C49.3767 70.9275 49.0439 70.5947 49.0439 70.0955C49.0439 69.5962 49.3767 69.2634 49.876 69.2634H61.8579C62.3571 69.2634 62.69 69.5962 62.69 70.0955C62.69 70.5947 62.3571 70.9275 61.8579 70.9275ZM32.4848 57.9472C34.0657 58.8625 35.7299 59.2785 37.4772 59.2785C38.3093 59.2785 39.2246 59.1953 40.1399 58.8625C41.8207 58.4143 43.3506 57.5134 44.5771 56.2868L44.6325 57.4481C44.6325 57.9474 45.0485 58.2802 45.4645 58.2802C45.9638 58.2802 46.2966 57.8642 46.2966 57.4481L46.1443 54.2505C46.2922 53.842 46.2022 53.3637 45.798 53.1212C45.5142 53.0077 45.1917 53.0103 44.9361 53.1555L41.8037 53.5375C41.3045 53.6207 40.9717 54.0367 41.0549 54.4528C41.1381 54.8688 41.4709 55.2016 41.8869 55.2016H41.9701L43.4665 55.0191C42.4269 56.1013 41.0947 56.8744 39.6406 57.2816C37.4772 57.864 35.3138 57.5312 33.4 56.4495C31.4863 55.3678 30.155 53.5372 29.5725 51.457C29.2397 50.1257 29.1565 48.8776 29.4893 47.5463C29.5725 47.1302 29.2397 46.631 28.8236 46.5478C28.4076 46.4646 27.9083 46.7974 27.8251 47.2134C27.4923 48.7944 27.4923 50.4585 27.9083 51.9563C28.574 54.4525 30.2382 56.6159 32.4848 57.9472ZM46.3797 52.1228H46.2133C45.7972 52.0396 45.4644 51.5404 45.5476 51.1243C45.7972 49.8762 45.7972 48.5449 45.4644 47.2968C44.2995 42.8868 39.8063 40.3074 35.3963 41.4723C33.8476 41.8892 32.5122 42.6899 31.4815 43.8132L32.902 43.6357C33.3181 43.5525 33.7341 43.8853 33.8173 44.3845C33.9005 44.8006 33.5677 45.2166 33.0684 45.2998L29.7401 45.7159H29.6569C29.6329 45.7159 29.6092 45.7148 29.5859 45.7126C29.5711 45.7113 29.5564 45.7096 29.5417 45.7075C29.4391 45.6971 29.3367 45.6717 29.2389 45.6326C29.1247 45.5641 29.0356 45.4768 28.9699 45.3776C28.879 45.2599 28.8234 45.1189 28.8234 44.9668L28.8229 44.9568C28.812 44.8976 28.8095 44.8385 28.8147 44.7804L28.6569 41.3889C28.6569 40.8896 28.9898 40.5568 29.4058 40.4736C29.9051 40.4736 30.2379 40.8064 30.3211 41.2225L30.381 42.5099C31.6265 41.2332 33.2048 40.3235 34.9803 39.8081C40.2223 38.3936 45.6308 41.5555 47.0453 46.7975C47.4614 48.2953 47.4614 49.8762 47.1285 51.4572C47.0453 51.8732 46.7125 52.1228 46.3797 52.1228ZM28.4922 70.9276H44.468C44.9672 70.9276 45.3001 70.5948 45.3001 70.0955V64.687C45.3001 64.1878 44.9672 63.855 44.468 63.855H28.4922C27.9929 63.855 27.6601 64.1878 27.6601 64.687V70.0955C27.6601 70.5948 27.9929 70.9276 28.4922 70.9276ZM43.6359 69.2635H29.3242V65.5191H43.6359V69.2635Z" fill="#693FAD"/>
</svg>
