<svg width="100" height="100" viewBox="0 0 100 100" fill="none" xmlns="http://www.w3.org/2000/svg">
<path fill-rule="evenodd" clip-rule="evenodd" d="M10 0C4.47715 0 0 4.47716 0 10V90C0 95.5229 4.47716 100 10 100H90C95.5229 100 100 95.5228 100 90V10C100 4.47715 95.5228 0 90 0H10ZM40.2731 71.4749C41.2051 72.2415 41.843 73.3071 42.0781 74.4908C42.9911 74.7513 43.7945 75.3018 44.3671 76.059C44.9398 76.8162 45.2506 77.7392 45.2527 78.6886C45.2547 79.638 44.9479 80.5623 44.3786 81.322C43.8092 82.0817 43.0082 82.6356 42.0964 82.9002C41.5778 83.0418 41.0435 83.1176 40.5059 83.1256V83.2292C40.5043 84.7592 39.8958 86.2261 38.8139 87.308C37.7321 88.3899 36.2652 88.9984 34.7352 89C34.5735 89 34.4185 88.9358 34.3043 88.8215C34.19 88.7072 34.1258 88.5522 34.1258 88.3906C34.1258 88.229 34.19 88.074 34.3043 87.9597C34.4185 87.8455 34.5735 87.7812 34.7352 87.7812C35.9145 87.8397 37.0705 87.4377 37.9589 86.6599C38.8474 85.8821 39.3989 84.7896 39.497 83.6128C39.595 82.4361 39.232 81.2673 38.4845 80.3532C37.737 79.4391 36.6636 78.8513 35.4908 78.7138L35.4902 78.7137C35.3754 78.7009 33.7463 78.5198 32.7669 79.1281C32.6699 79.1882 32.558 79.2199 32.4439 79.2195C32.3112 79.22 32.182 79.1771 32.0759 79.0974C31.9698 79.0177 31.8927 78.9055 31.8561 78.778C31.8196 78.6504 31.8257 78.5144 31.8735 78.3907C31.9213 78.2669 32.0082 78.1621 32.1209 78.0922C32.9921 77.634 33.9721 77.4232 34.9545 77.4828C34.8607 76.6986 34.5227 75.9637 33.9883 75.3822C33.4539 74.8006 32.7502 74.4018 31.9767 74.2421C31.2032 74.0824 30.3991 74.17 29.678 74.4923C28.957 74.8147 28.3556 75.3557 27.9589 76.0386C27.8785 76.178 27.7463 76.2799 27.591 76.3222C27.4357 76.3644 27.2701 76.3435 27.1302 76.2641C25.3918 75.2934 23.3557 75.0004 21.4142 75.4414C21.6255 76.0018 21.7469 76.592 21.7738 77.1903C21.7738 77.3519 21.7095 77.5069 21.5953 77.6212C21.481 77.7355 21.326 77.7997 21.1644 77.7997C21.0028 77.7997 20.8478 77.7355 20.7335 77.6212C20.6192 77.5069 20.555 77.3519 20.555 77.1903C20.494 76.5281 20.3209 75.8811 20.0431 75.2769C19.7218 74.5718 19.2268 73.9598 18.6043 73.4982C17.9819 73.0367 17.2524 72.7408 16.4844 72.6383C16.3815 72.6236 16.2841 72.5828 16.2014 72.5198C16.1188 72.4569 16.0536 72.3738 16.012 72.2785C15.9705 72.1833 15.954 72.079 15.9642 71.9756C15.9743 71.8721 16.0108 71.773 16.07 71.6877C16.7102 70.7756 17.0528 69.688 17.0511 68.5738C17.0495 67.131 16.4756 65.7478 15.4555 64.7277C14.4353 63.7075 13.0521 63.1336 11.6094 63.132C11.4478 63.132 11.2928 63.0678 11.1785 62.9536C11.0642 62.8393 11 62.6843 11 62.5227C11 62.361 11.0642 62.206 11.1785 62.0918C11.2928 61.9775 11.4478 61.9133 11.6094 61.9133C13.3764 61.9181 15.0692 62.6243 16.3158 63.8766C17.5625 65.129 18.2609 66.825 18.2577 68.592C18.2597 69.6521 18.0068 70.6971 17.5203 71.6389C18.9516 72.0653 20.1645 73.0252 20.9084 74.3202C23.0209 73.7731 25.2587 73.9889 27.2277 74.9295C27.8408 74.1122 28.6903 73.503 29.6612 73.1845C30.632 72.866 31.6773 72.8535 32.6554 73.1488C33.6336 73.444 34.4974 74.0327 35.1299 74.8352C35.7624 75.6376 36.133 76.6151 36.1916 77.6352C37.2082 77.898 38.1332 78.4347 38.866 79.1869C39.5988 79.939 40.1112 80.8777 40.3475 81.9008C40.8285 81.9117 41.3086 81.8542 41.7734 81.7302C42.4561 81.5265 43.0497 81.0979 43.4579 80.5141C43.8661 79.9303 44.0648 79.2256 44.0217 78.5145C43.9786 77.8035 43.6963 77.1279 43.2207 76.5976C42.745 76.0673 42.1039 75.7135 41.4017 75.5938C41.2713 75.5722 41.1515 75.5088 41.0602 75.4132C40.969 75.3176 40.9114 75.1949 40.8959 75.0636C40.7853 74.0864 40.3195 73.1839 39.5869 72.5278C38.8544 71.8716 37.9062 71.5076 36.9228 71.5048C35.8646 71.506 34.8499 71.9268 34.1014 72.6748C34.0173 72.7597 33.91 72.818 33.793 72.8424C33.676 72.8668 33.5545 72.8563 33.4434 72.8121C33.3323 72.768 33.2367 72.6921 33.1684 72.594C33.1002 72.496 33.0622 72.38 33.0594 72.2605C33.0099 70.2534 32.1744 68.346 30.7327 66.9488C29.291 65.5515 27.3584 64.7761 25.3508 64.7895C24.9274 64.8004 24.5056 64.8453 24.0894 64.9236C23.9415 64.9489 23.7894 64.9188 23.6623 64.8389C23.5353 64.7591 23.4421 64.6352 23.4008 64.4909C22.8394 62.6036 21.6865 60.9465 20.1122 59.7638C18.5379 58.5812 16.6253 57.9355 14.6562 57.9219C13.7298 57.9236 12.8091 58.0674 11.9263 58.3484C11.7763 58.3857 11.6177 58.3646 11.4827 58.2894C11.3476 58.2142 11.2462 58.0905 11.199 57.9433C11.1518 57.7962 11.1622 57.6366 11.2282 57.4968C11.2942 57.3571 11.4109 57.2476 11.5545 57.1906C12.5572 56.8697 13.6034 56.7053 14.6562 56.7031C16.8028 56.7086 18.895 57.3781 20.6461 58.6196C22.3971 59.8612 23.7212 61.614 24.4367 63.6378C24.7477 63.5951 25.0612 63.5728 25.3752 63.5708C27.494 63.5647 29.5448 64.318 31.1558 65.6942C32.7668 67.0705 33.8313 68.9784 34.1562 71.0722C34.9984 70.5474 35.9732 70.2746 36.9655 70.2861C38.1722 70.2883 39.341 70.7084 40.2731 71.4749ZM55.2952 56.7031C55.9988 55.8774 56.6117 54.9785 57.1233 54.0219L63.4852 59.3905C63.5956 59.4849 63.7361 59.5367 63.8813 59.5367H64.0275C64.1217 59.5136 64.2089 59.4684 64.282 59.4048C64.3551 59.3412 64.4121 59.2611 64.448 59.1711C65.1958 57.05 65.567 54.8144 65.5449 52.5655C65.5449 43.8027 64.6126 42.0842 60.6699 39.2384V38.0197C60.6699 31.3714 58.0983 23.2119 55.3074 17.6178C55.3024 17.5345 55.2803 17.4531 55.2426 17.3787C55.2049 17.3043 55.1523 17.2384 55.088 17.1852C53.2416 13.4375 51.2977 11 49.9997 11C46.6421 11 39.2991 26.3867 39.2991 37.9648V39.1836C35.3504 42.0294 34.4241 43.7417 34.4241 52.5106C34.4031 54.7685 34.7785 57.0125 35.5332 59.1406C35.5691 59.2306 35.626 59.3107 35.6992 59.3743C35.7723 59.4379 35.8595 59.4831 35.9536 59.5062H36.0999C36.2451 59.5063 36.3856 59.4544 36.496 59.36L42.8579 53.9914C43.3695 54.948 43.9824 55.8469 44.686 56.6727C44.7431 56.7377 44.8134 56.7898 44.8922 56.8255C44.971 56.8612 45.0565 56.8797 45.143 56.8798H49.3904V58.8969C49.3904 59.0585 49.4546 59.2135 49.5688 59.3278C49.6831 59.442 49.8381 59.5062 49.9997 59.5062C50.1614 59.5062 50.3164 59.442 50.4306 59.3278C50.5449 59.2135 50.6091 59.0585 50.6091 58.8969V56.892H54.8382C54.9233 56.8942 55.008 56.8786 55.0867 56.846C55.1654 56.8135 55.2365 56.7648 55.2952 56.7031ZM60.1032 45.125C60.3537 43.6647 60.5245 42.1919 60.6151 40.7131C63.5401 42.9069 64.3444 44.4852 64.3444 52.5777C64.3497 54.3819 64.1056 56.1783 63.6193 57.9158L57.7205 52.9311C58.8187 50.5449 59.5993 48.025 60.0422 45.4358C60.0809 45.3559 60.1017 45.2686 60.1032 45.1798V45.125ZM49.9997 12.2188C50.6091 12.2188 51.9497 13.8763 53.4061 16.527C52.2777 16.3707 51.1388 16.3014 49.9997 16.3198C48.8379 16.3003 47.6764 16.3736 46.5263 16.5392C47.9949 13.8763 49.3416 12.2188 49.9997 12.2188ZM36.3802 57.8792C35.8938 56.1417 35.6498 54.3454 35.6551 52.5411C35.6551 44.4486 36.4533 42.8703 39.3844 40.6766C39.4749 42.1554 39.6458 43.6282 39.8963 45.0884V45.1494C39.8977 45.2381 39.9185 45.3255 39.9572 45.4053C40.4002 47.9945 41.1808 50.5144 42.279 52.9006L36.3802 57.8792ZM49.3904 55.6733H45.4416C43.4916 53.3577 42.0291 49.7623 41.2186 45.5455C43.934 45.2785 46.6622 45.1646 49.3904 45.2042V55.6733ZM49.9997 38.9155C49.8381 38.9155 49.6831 38.9797 49.5688 39.094C49.4546 39.2082 49.3904 39.3632 49.3904 39.5248V43.9794C44.5154 43.9794 42.1693 44.1378 41.0115 44.3633C40.6804 42.2446 40.5153 40.1032 40.5179 37.9588C40.5179 30.8656 43.1626 23.1875 45.7341 18.0566C45.7593 18.0282 45.7817 17.9976 45.8011 17.9652C47.172 17.6169 48.5868 17.4732 49.9997 17.5386C51.3976 17.4824 52.7964 17.6219 54.1557 17.953C56.7516 23.1266 59.4877 30.9753 59.4877 37.9709C59.4902 40.1154 59.3252 42.2567 58.9941 44.3755C57.8363 44.1561 55.4597 44.0037 50.6152 43.9916V39.5248C50.6152 39.4443 50.5993 39.3646 50.5682 39.2902C50.5372 39.2159 50.4918 39.1484 50.4346 39.0918C50.3773 39.0351 50.3094 38.9904 50.2348 38.9601C50.1602 38.9298 50.0803 38.9147 49.9997 38.9155ZM50.6091 55.6733V45.2042C53.3374 45.1666 56.0656 45.2826 58.7808 45.5516C57.9765 49.7684 56.5079 53.3638 54.5579 55.6794L50.6091 55.6733ZM83.8558 63.7109C85.0834 62.5569 86.7047 61.9141 88.3895 61.9133C88.5511 61.9133 88.7061 61.9775 88.8204 62.0917C88.9347 62.206 88.9989 62.361 88.9989 62.5226C88.9989 62.6843 88.9347 62.8392 88.8204 62.9535C88.7061 63.0678 88.5511 63.132 88.3895 63.132C87.6736 63.1304 86.9644 63.2699 86.3024 63.5426C85.6404 63.8153 85.0387 64.2158 84.5316 64.7212C84.0245 65.2266 83.622 65.8269 83.3471 66.488C83.0722 67.149 82.9303 67.8578 82.9295 68.5737C82.933 69.5637 83.2092 70.5336 83.7278 71.3769C84.568 71.2881 85.4171 71.4052 86.2019 71.7181C86.331 71.7731 86.4372 71.871 86.5025 71.9953C86.5678 72.1195 86.5882 72.2625 86.5602 72.4C86.5323 72.5376 86.4577 72.6613 86.3491 72.7502C86.2405 72.8391 86.1046 72.8878 85.9642 72.8881C85.8846 72.8871 85.8059 72.8706 85.7327 72.8394C85.0364 72.5705 84.28 72.4968 83.545 72.6261H83.5084C82.7404 72.7286 82.0109 73.0245 81.3885 73.486C80.7661 73.9475 80.271 74.5595 79.9497 75.2647C79.8881 75.4 79.7792 75.5082 79.6433 75.5688C79.5075 75.6295 79.3542 75.6383 79.2123 75.5937C78.1643 75.2722 77.0617 75.168 75.9719 75.2875C74.8822 75.4069 73.8284 75.7475 72.8748 76.2884C72.0149 76.8614 71.3028 77.6298 70.7969 78.5309C70.7161 78.6723 70.5824 78.7759 70.4253 78.8187C70.2681 78.8616 70.1004 78.8402 69.959 78.7594C69.8176 78.6786 69.7141 78.545 69.6712 78.3878C69.6283 78.2307 69.6497 78.063 69.7305 77.9215C70.2364 77.0212 70.9158 76.23 71.7292 75.5937C71.2435 74.9826 70.5795 74.5378 69.8295 74.3212C69.0795 74.1045 68.2807 74.1266 67.5439 74.3845C66.807 74.6424 66.1687 75.1233 65.7176 75.7604C65.2664 76.3974 65.0247 77.1592 65.0261 77.9398V78.0312V78.1287C65.028 78.2748 64.9773 78.4167 64.8834 78.5285C64.7894 78.6404 64.6584 78.7147 64.5142 78.7381C63.3861 78.9246 62.3695 79.5288 61.6665 80.4306C60.9635 81.3323 60.6256 82.4657 60.72 83.6052C60.8145 84.7447 61.3343 85.807 62.1762 86.5807C63.0181 87.3545 64.1203 87.783 65.2637 87.7812C65.4254 87.7812 65.5804 87.8454 65.6946 87.9597C65.8089 88.074 65.8731 88.229 65.8731 88.3906C65.8731 88.5522 65.8089 88.7072 65.6946 88.8215C65.5804 88.9358 65.4254 89 65.2637 89C63.9403 89.0018 62.6563 88.5497 61.626 87.719C60.5958 86.8884 59.8816 85.7295 59.6027 84.4358C59.0287 84.4323 58.4711 84.2442 58.0122 83.8995C57.5029 83.5526 57.0861 83.0864 56.7983 82.5415C56.5104 81.9967 56.3602 81.3896 56.3608 80.7734C56.3685 79.9425 56.6461 79.1366 57.1517 78.4771C57.6573 77.8177 58.3635 77.3404 59.1639 77.1172C59.0576 76.6162 59.0025 76.1058 58.9994 75.5937C58.9961 73.3574 59.8793 71.2109 61.4555 69.6244C63.0317 68.0379 65.1724 67.1408 67.4087 67.1295C68.3262 67.1246 69.2383 67.2708 70.1083 67.5622C70.7393 65.8777 71.8702 64.4264 73.3492 63.4026C74.8282 62.3788 76.5848 61.8315 78.3836 61.834C79.9226 61.8322 81.4353 62.2335 82.7711 62.9979C82.7859 63.0075 82.8142 63.0248 82.8534 63.0489C83.0402 63.1634 83.473 63.4288 83.8558 63.7109ZM82.4664 71.6206C81.9797 70.6789 81.7268 69.6338 81.7291 68.5737C81.7198 67.1494 82.1708 65.7601 83.0148 64.6128C82.7467 64.3995 82.3689 64.174 82.1373 64.04C80.9886 63.3837 79.6883 63.0391 78.3653 63.0406C76.7174 63.0416 75.1142 63.5765 73.7959 64.5653C72.4776 65.554 71.5152 66.9433 71.0528 68.525C71.028 68.607 70.9862 68.6828 70.9301 68.7476C70.874 68.8123 70.8049 68.8645 70.7272 68.9007C70.6496 68.9369 70.5652 68.9564 70.4796 68.9578C70.3939 68.9592 70.3089 68.9425 70.2301 68.9089C69.3414 68.5331 68.3859 68.3403 67.4209 68.3422C65.5057 68.347 63.6706 69.1112 62.318 70.4672C60.9655 71.8232 60.2059 73.6602 60.2059 75.5754C60.2191 76.1945 60.3134 76.8091 60.4862 77.4036C60.5098 77.4898 60.5141 77.5801 60.4989 77.6682C60.4836 77.7562 60.4492 77.8399 60.398 77.9131C60.3468 77.9864 60.2802 78.0475 60.2028 78.0921C60.1253 78.1368 60.039 78.1638 59.95 78.1714C59.4128 78.2132 58.9022 78.422 58.4896 78.7684C58.0769 79.1148 57.7828 79.5815 57.6485 80.1033C57.5142 80.625 57.5464 81.1757 57.7405 81.6783C57.9347 82.1809 58.2811 82.6102 58.7312 82.9062C58.9496 83.0705 59.2089 83.1717 59.4808 83.1987C59.4771 81.9211 59.8992 80.6787 60.6806 79.6678C61.4619 78.6569 62.5578 77.9352 63.7952 77.6169C63.8537 76.5968 64.2243 75.6193 64.8568 74.8169C65.4893 74.0144 66.3531 73.4257 67.3313 73.1304C68.3094 72.8352 69.3547 72.8477 70.3256 73.1662C71.2964 73.4847 72.1459 74.0939 72.7591 74.9112C74.7281 73.9706 76.9658 73.7548 79.0783 74.3018C79.8217 73.0064 81.0348 72.0465 82.4664 71.6206ZM50 63.6744C49.8384 63.6744 49.6834 63.7386 49.5691 63.8528C49.4548 63.9671 49.3906 64.1221 49.3906 64.2837V82.1445C49.3906 82.3061 49.4548 82.4611 49.5691 82.5754C49.6834 82.6897 49.8384 82.7539 50 82.7539C50.1616 82.7539 50.3166 82.6897 50.4309 82.5754C50.5452 82.4611 50.6094 82.3061 50.6094 82.1445V64.2837C50.6094 64.1221 50.5452 63.9671 50.4309 63.8528C50.3166 63.7386 50.1616 63.6744 50 63.6744ZM44.8345 61.0741C44.9487 60.9598 45.1037 60.8956 45.2654 60.8956C45.427 60.8956 45.582 60.9598 45.6963 61.0741C45.8105 61.1883 45.8747 61.3433 45.8747 61.5049V69.4999C45.8747 69.6616 45.8105 69.8166 45.6963 69.9308C45.582 70.0451 45.427 70.1093 45.2654 70.1093C45.1037 70.1093 44.9487 70.0451 44.8345 69.9308C44.7202 69.8166 44.656 69.6616 44.656 69.4999V61.5049C44.656 61.3433 44.7202 61.1883 44.8345 61.0741ZM54.7346 60.8956C54.573 60.8956 54.418 60.9598 54.3037 61.0741C54.1895 61.1883 54.1253 61.3433 54.1253 61.5049V69.4999C54.1253 69.6616 54.1895 69.8166 54.3037 69.9308C54.418 70.0451 54.573 70.1093 54.7346 70.1093C54.8963 70.1093 55.0513 70.0451 55.1655 69.9308C55.2798 69.8166 55.344 69.6616 55.344 69.4999V61.5049C55.344 61.3433 55.2798 61.1883 55.1655 61.0741C55.0513 60.9598 54.8963 60.8956 54.7346 60.8956ZM54.0004 28.2173C54.5279 29.0088 54.8089 29.9389 54.8077 30.8901C54.8045 32.1637 54.2967 33.3841 53.3955 34.2841C52.4944 35.1841 51.2733 35.6904 49.9997 35.692C49.0485 35.692 48.1187 35.4098 47.3279 34.8813C46.5371 34.3527 45.9209 33.6014 45.5572 32.7225C45.1934 31.8436 45.0986 30.8766 45.2846 29.9438C45.4706 29.011 45.9291 28.1543 46.6021 27.4821C47.2752 26.8099 48.1324 26.3525 49.0655 26.1677C49.9985 25.9829 50.9654 26.0789 51.8439 26.4438C52.7223 26.8086 53.4728 27.4258 54.0004 28.2173ZM48.0057 33.8683C48.5959 34.2627 49.2898 34.4732 49.9997 34.4732C50.9516 34.4732 51.8646 34.0951 52.5377 33.422C53.2108 32.7489 53.5889 31.8359 53.5889 30.884C53.5889 30.1741 53.3784 29.4802 52.9841 28.8899C52.5897 28.2997 52.0291 27.8397 51.3733 27.568C50.7174 27.2963 49.9957 27.2253 49.2995 27.3638C48.6033 27.5022 47.9637 27.8441 47.4618 28.3461C46.9598 28.848 46.618 29.4876 46.4795 30.1838C46.341 30.88 46.4121 31.6017 46.6837 32.2575C46.9554 32.9134 47.4154 33.4739 48.0057 33.8683ZM21.9688 43.3761H23.2667V44.6984C23.2667 44.8601 23.3309 45.015 23.4452 45.1293C23.5595 45.2436 23.7145 45.3078 23.8761 45.3078C24.0377 45.3078 24.1927 45.2436 24.307 45.1293C24.4213 45.015 24.4855 44.8601 24.4855 44.6984V43.3761H25.7773C25.939 43.3761 26.094 43.3119 26.2082 43.1976C26.3225 43.0833 26.3867 42.9283 26.3867 42.7667C26.3867 42.6051 26.3225 42.4501 26.2082 42.3358C26.094 42.2215 25.939 42.1573 25.7773 42.1573H24.4855V40.8594C24.4855 40.6978 24.4213 40.5428 24.307 40.4285C24.1927 40.3142 24.0377 40.25 23.8761 40.25C23.7145 40.25 23.5595 40.3142 23.4452 40.4285C23.3309 40.5428 23.2667 40.6978 23.2667 40.8594V42.1573H21.9688C21.8071 42.1573 21.6521 42.2215 21.5379 42.3358C21.4236 42.4501 21.3594 42.6051 21.3594 42.7667C21.3594 42.9283 21.4236 43.0833 21.5379 43.1976C21.6521 43.3119 21.8071 43.3761 21.9688 43.3761ZM67.7511 24.4794H66.4531C66.2915 24.4794 66.1365 24.4152 66.0222 24.3009C65.908 24.1866 65.8438 24.0316 65.8438 23.87C65.8438 23.7084 65.908 23.5534 66.0222 23.4391C66.1365 23.3248 66.2915 23.2606 66.4531 23.2606H67.7572V21.9688C67.7572 21.8071 67.8214 21.6521 67.9357 21.5379C68.0499 21.4236 68.2049 21.3594 68.3666 21.3594C68.5282 21.3594 68.6832 21.4236 68.7975 21.5379C68.9117 21.6521 68.9759 21.8071 68.9759 21.9688V23.2606H70.2678C70.4294 23.2606 70.5844 23.3248 70.6987 23.4391C70.813 23.5534 70.8772 23.7084 70.8772 23.87C70.8772 24.0316 70.813 24.1866 70.6987 24.3009C70.5844 24.4152 70.4294 24.4794 70.2678 24.4794H68.9698V25.7773C68.9698 25.939 68.9056 26.094 68.7914 26.2082C68.6771 26.3225 68.5221 26.3867 68.3605 26.3867C68.1989 26.3867 68.0439 26.3225 67.9296 26.2082C67.8153 26.094 67.7511 25.939 67.7511 25.7773V24.4794ZM74.4542 50.6094V51.9073H73.1562C72.9946 51.9073 72.8396 51.9715 72.7254 52.0858C72.6111 52.2001 72.5469 52.3551 72.5469 52.5167C72.5469 52.6783 72.6111 52.8333 72.7254 52.9476C72.8396 53.0619 72.9946 53.1261 73.1562 53.1261H74.4542V54.418C74.4542 54.5796 74.5184 54.7346 74.6327 54.8489C74.747 54.9631 74.902 55.0273 75.0636 55.0273C75.2252 55.0273 75.3802 54.9631 75.4945 54.8489C75.6088 54.7346 75.673 54.5796 75.673 54.418V53.12H76.9709C77.1326 53.12 77.2875 53.0558 77.4018 52.9415C77.5161 52.8272 77.5803 52.6722 77.5803 52.5106C77.5803 52.349 77.5161 52.194 77.4018 52.0797C77.2875 51.9655 77.1326 51.9012 76.9709 51.9012H75.6791V50.6094C75.6791 50.4478 75.6149 50.2928 75.5006 50.1785C75.3863 50.0642 75.2313 50 75.0697 50C74.9081 50 74.7531 50.0642 74.6388 50.1785C74.5245 50.2928 74.4603 50.4478 74.4603 50.6094H74.4542ZM31.1886 22.048H29.8906C29.729 22.048 29.574 21.9838 29.4597 21.8695C29.3455 21.7552 29.2812 21.6002 29.2812 21.4386C29.2812 21.277 29.3455 21.122 29.4597 21.0077C29.574 20.8934 29.729 20.8292 29.8906 20.8292H31.1886V19.5312C31.1886 19.3696 31.2528 19.2146 31.3671 19.1004C31.4814 18.9861 31.6364 18.9219 31.798 18.9219C31.9596 18.9219 32.1146 18.9861 32.2289 19.1004C32.3431 19.2146 32.4073 19.3696 32.4073 19.5312V20.8292H33.7053C33.8669 20.8292 34.0219 20.8934 34.1362 21.0077C34.2505 21.122 34.3147 21.277 34.3147 21.4386C34.3147 21.6002 34.2505 21.7552 34.1362 21.8695C34.0219 21.9838 33.8669 22.048 33.7053 22.048H32.4073V23.3398C32.4073 23.5015 32.3431 23.6565 32.2289 23.7707C32.1146 23.885 31.9596 23.9492 31.798 23.9492C31.6364 23.9492 31.4814 23.885 31.3671 23.7707C31.2528 23.6565 31.1886 23.5015 31.1886 23.3398V22.048Z" fill="#693FAD"/>
</svg>
